<?xml version="1.0" encoding="UTF-8"?>
<svg width="100px" height="30px" viewBox="0 0 100 30" version="1.1" xmlns="http://www.w3.org/2000/svg" xmlns:xlink="http://www.w3.org/1999/xlink">
    <!-- Generator: Sketch 59.1 (86144) - https://sketch.com -->
    <title>apple.0708b9cd</title>
    <desc>Created with Sketch.</desc>
    <g id="页面1" stroke="none" stroke-width="1" fill="none" fill-rule="evenodd" opacity="0.6">
        <g id="登陆" transform="translate(-1295.000000, -700.000000)">
            <g id="apple.0708b9cd" transform="translate(1295.000000, 700.000000)">
                <rect id="Rectangle备份-2" fill="#FAFAFA" x="0.384615385" y="0.3634785" width="99.2307692" height="29.25" rx="14.625"></rect>
                <path d="M32.9462139,11.9884785 L32.9462139,6.65644725 L34.6664663,6.65644725 C35.3801118,6.65644725 35.9541495,6.8706785 36.3885968,7.29914744 C36.8230441,7.72761638 37.0402645,8.2811997 37.0402645,8.95991408 L37.0402645,9.68867385 C37.0402645,10.3698296 36.8230441,10.9234129 36.3885968,11.3494404 C35.9541495,11.7754679 35.3801118,11.9884785 34.6664663,11.9884785 L32.9462139,11.9884785 Z M33.6861478,7.22407421 L33.6861478,11.4245137 L34.6664663,11.4245137 C35.1722782,11.4245137 35.5710372,11.2621618 35.8627554,10.9374531 C36.1544736,10.6127444 36.3003305,10.1964889 36.3003305,9.68867385 L36.3003305,8.9525898 C36.3003305,8.44965765 36.1544736,8.03584343 35.8627554,7.71113475 C35.5710372,7.3864261 35.1722782,7.22407421 34.6664663,7.22407421 L33.6861478,7.22407421 Z M37.8816106,9.97065623 C37.8816106,9.3847158 38.0443694,8.90193255 38.3698918,8.522292 C38.6954143,8.14265138 39.137367,7.95283395 39.6957632,7.95283395 C40.2591675,7.95283395 40.7042502,8.14204103 41.0310246,8.52046095 C41.3577991,8.8988808 41.5211839,9.3822744 41.5211839,9.97065623 L41.5211839,10.0512227 C41.5211839,10.6420459 41.3584251,11.1254395 41.0329026,11.5014179 C40.7073802,11.8773964 40.2641755,12.0653828 39.7032752,12.0653828 C39.142375,12.0653828 38.6985443,11.876786 38.3717698,11.4995869 C38.0449954,11.1223877 37.8816106,10.6396045 37.8816106,10.0512227 L37.8816106,9.97065623 Z M38.6215445,10.0512227 C38.6215445,10.4711466 38.7123138,10.8178229 38.8938552,11.0912617 C39.0753965,11.3647006 39.3452005,11.5014179 39.7032752,11.5014179 C40.0563419,11.5014179 40.3242679,11.3647006 40.5070613,11.0912617 C40.6898547,10.8178229 40.78125,10.4711466 40.78125,10.0512227 L40.78125,9.97065623 C40.78125,9.55561508 40.6892287,9.2101596 40.5051833,8.9342793 C40.3211379,8.658399 40.0513339,8.52046095 39.6957632,8.52046095 C39.3426965,8.52046095 39.0753965,8.658399 38.8938552,8.9342793 C38.7123138,9.2101596 38.6215445,9.55561508 38.6215445,9.97065623 L38.6215445,10.0512227 Z M43.4667968,10.5456074 L43.5606971,11.0546406 L43.5832332,11.0546406 L43.6808894,10.5456074 L44.4921875,8.02607618 L45.085637,8.02607618 L45.9006911,10.5456074 L46.0058594,11.1132344 L46.0283955,11.1132344 L46.1485878,10.5456074 L46.7495493,8.02607618 L47.5232872,8.02607618 L46.3439002,11.9884785 L45.7466947,11.9884785 L44.9429086,9.57514845 L44.7889122,8.9452656 L44.7663762,8.9452656 L44.6236478,9.57514845 L43.8348858,11.9884785 L43.2376803,11.9884785 L42.0582932,8.02607618 L42.8282752,8.02607618 L43.4667968,10.5456074 Z M48.9092548,8.02607618 L48.9618389,8.61567578 C49.097056,8.4057138 49.2667007,8.24275155 49.4707782,8.12678415 C49.6748558,8.01081675 49.9071001,7.95283395 50.167518,7.95283395 C50.6057213,7.95283395 50.9450108,8.0779548 51.1853966,8.32820018 C51.4257825,8.57844555 51.5459735,8.96479425 51.5459735,9.48725783 L51.5459735,11.9884785 L50.8060397,11.9884785 L50.8060397,9.50190623 C50.8060397,9.1527834 50.7353022,8.90498318 50.5938252,8.75849805 C50.4523481,8.61201293 50.2363797,8.53877145 49.9459135,8.53877145 C49.7180478,8.53877145 49.5246152,8.5833267 49.36561,8.67243848 C49.2066048,8.76155025 49.0807797,8.88667103 48.988131,9.0478047 L48.988131,11.9884785 L48.2481971,11.9884785 L48.2481971,8.02607618 L48.9092548,8.02607618 Z M53.4202224,11.9884785 L52.6802885,11.9884785 L52.6802885,6.27558788 L53.4202224,6.27558788 L53.4202224,11.9884785 Z M54.3855168,9.97065623 C54.3855168,9.3847158 54.5482756,8.90193255 54.8737981,8.522292 C55.1993205,8.14265138 55.6412732,7.95283395 56.1996695,7.95283395 C56.7630737,7.95283395 57.2081564,8.14204103 57.5349309,8.52046095 C57.8617054,8.8988808 58.0250902,9.3822744 58.0250902,9.97065623 L58.0250902,10.0512227 C58.0250902,10.6420459 57.8623314,11.1254395 57.5368089,11.5014179 C57.2112865,11.8773964 56.7680817,12.0653828 56.2071815,12.0653828 C55.6462812,12.0653828 55.2024505,11.876786 54.8756761,11.4995869 C54.5489016,11.1223877 54.3855168,10.6396045 54.3855168,10.0512227 L54.3855168,9.97065623 Z M55.1254507,10.0512227 C55.1254507,10.4711466 55.2162201,10.8178229 55.3977614,11.0912617 C55.5793028,11.3647006 55.8491068,11.5014179 56.2071815,11.5014179 C56.5602482,11.5014179 56.8281742,11.3647006 57.0109675,11.0912617 C57.1937609,10.8178229 57.2851562,10.4711466 57.2851562,10.0512227 L57.2851562,9.97065623 C57.2851562,9.55561508 57.1931349,9.2101596 57.0090895,8.9342793 C56.8250442,8.658399 56.5552402,8.52046095 56.1996695,8.52046095 C55.8466028,8.52046095 55.5793028,8.658399 55.3977614,8.9342793 C55.2162201,9.2101596 55.1254507,9.55561508 55.1254507,9.97065623 L55.1254507,10.0512227 Z M62.1905048,11.9884785 L61.4280348,11.9884785 L61.3854668,11.7679382 C61.3796241,11.7343011 61.3744074,11.7022238 61.3698167,11.671706 C61.3560446,11.5801529 61.3479067,11.4879907 61.3454026,11.3952168 C61.2076816,11.5856474 61.0280209,11.7449476 60.8064152,11.8731221 C60.5848096,12.0012965 60.3463054,12.0653828 60.0908955,12.0653828 C59.6677162,12.0653828 59.3453286,11.959793 59.1237229,11.7486104 C58.9021173,11.5374277 58.7913161,11.2462928 58.7913161,10.8751973 C58.7913161,10.4967774 58.9484409,10.2007598 59.2626953,9.98713575 C59.5769497,9.7735116 60.0032525,9.66670118 60.5416166,9.66670118 L61.3454026,9.66670118 L61.3454026,9.27485543 C61.3454026,9.0429207 61.2727872,8.8592067 61.1275541,8.72370803 C60.982321,8.58820928 60.7769945,8.52046095 60.5115685,8.52046095 C60.2711827,8.52046095 60.0771242,8.5790541 59.929387,8.6962422 C59.7816499,8.81343023 59.7077825,8.95380975 59.7077825,9.11738475 L59.0054086,9.12470895 L58.9978966,9.10273635 C58.9803685,8.8146489 59.1187135,8.55097973 59.4129357,8.31172065 C59.7071579,8.07246165 60.0871371,7.95283395 60.5528846,7.95283395 C61.0136241,7.95283395 61.3842133,8.06696858 61.6646635,8.2952412 C61.9451136,8.52351383 62.0853365,8.85249 62.0853365,9.2821797 L62.0853365,11.1901387 C62.0853365,11.3317409 62.0928485,11.4684583 62.1078726,11.6002949 C62.1228967,11.7321315 62.1504405,11.8615247 62.1905048,11.9884785 Z M60.1998197,11.4611348 C60.4677498,11.4611348 60.7093839,11.3939968 60.9247295,11.2597187 C61.1400752,11.1254408 61.2802982,10.9716337 61.3454026,10.7982929 L61.3454026,10.1537617 L60.5153245,10.1537617 C60.2173462,10.1537617 59.9788421,10.2270032 59.7998047,10.3734883 C59.6207673,10.5199734 59.53125,10.6920908 59.53125,10.8898457 C59.53125,11.0656278 59.5875896,11.2047866 59.7002705,11.3073262 C59.8129513,11.4098657 59.9794661,11.4611348 60.1998197,11.4611348 Z M62.9905348,10.0805195 C62.9905348,9.44330933 63.1301318,8.92939845 63.4093299,8.53877145 C63.6885281,8.14814453 64.0797752,7.95283395 64.5830829,7.95283395 C64.8209648,7.95283395 65.0319252,7.99555815 65.2159705,8.08100783 C65.4000159,8.16645743 65.5571408,8.29096793 65.6873498,8.45454293 L65.6873498,6.27558788 L66.4272837,6.27558788 L66.4272837,11.9884785 L65.8601262,11.9884785 L65.7474459,11.4867695 C65.6147329,11.6772002 65.4507222,11.8212417 65.2554086,11.9188985 C65.0600952,12.0165551 64.8334848,12.0653828 64.5755709,12.0653828 C64.0797752,12.0653828 63.6916581,11.8902137 63.4112079,11.5398701 C63.1307578,11.1895265 62.9905348,10.7287157 62.9905348,10.1574239 L62.9905348,10.0805195 Z M63.7304688,10.1574239 C63.7304688,10.5578165 63.8143522,10.8782478 63.9821214,11.1187275 C64.1498907,11.3592073 64.4103047,11.4794453 64.7633714,11.4794453 C64.9837251,11.4794453 65.1690197,11.4306176 65.3192608,11.332961 C65.4695019,11.2353042 65.5921971,11.0985868 65.6873498,10.9228047 L65.6873498,9.0734394 C65.5921971,8.9098644 65.4688759,8.77986083 65.3173828,8.68342478 C65.1658897,8.58698873 64.983725,8.53877145 64.7708834,8.53877145 C64.4153127,8.53877145 64.1530207,8.6815923 63.9839994,8.96723828 C63.8149782,9.25288425 63.7304688,9.62397428 63.7304688,10.0805195 L63.7304688,10.1574239 Z M69.7513522,11.9884785 L69.7513522,8.56074413 L69.1165865,8.56074413 L69.1165865,8.02607618 L69.7513522,8.02607618 L69.7513522,7.5243672 C69.7513522,7.10200178 69.8646573,6.77546696 70.091271,6.54475292 C70.3178848,6.31403887 70.6340124,6.19868358 71.0396635,6.19868358 C71.1248001,6.19868358 71.2105615,6.20539738 71.2969502,6.21882518 L71.4822465,6.25300483 C71.5152158,6.25992214 71.5492286,6.26744981 71.5842848,6.27558788 L71.4941406,6.82490429 L71.3914765,6.80700064 C71.3722791,6.80428797 71.3520384,6.80171093 71.3307542,6.79926952 C71.2669017,6.79194526 71.1999202,6.78828319 71.1298077,6.78828319 C70.9144621,6.78828319 70.7542072,6.85114877 70.6490385,6.97688182 C70.5438697,7.10261487 70.4912861,7.28510816 70.4912861,7.5243672 L70.4912861,8.02607618 L71.2274639,8.02607618 L71.2274639,8.56074413 L70.4912861,8.56074413 L70.4912861,11.9884785 L69.7513522,11.9884785 Z M73.8979868,8.66328315 L73.5186298,8.64131055 C73.3233163,8.64131055 73.1586795,8.68647608 73.0247145,8.77680855 C72.8907495,8.86714103 72.7874603,8.99409293 72.7148438,9.15766793 L72.7148438,11.9884785 L71.9749098,11.9884785 L71.9749098,8.02607618 L72.6359675,8.02607618 L72.7073317,8.6046894 C72.8225166,8.3996103 72.9646175,8.2396998 73.1336388,8.1249531 C73.3026601,8.01020648 73.4973446,7.95283395 73.7176983,7.95283395 C73.7727868,7.95283395 73.8253703,7.9571064 73.8754507,7.96565138 L73.9639256,7.983555 C73.9767238,7.98667455 73.9885483,7.98986198 73.9993991,7.9931172 L73.8979868,8.66328315 Z M74.4951923,9.97065623 C74.4951923,9.3847158 74.6579511,8.90193255 74.9834735,8.522292 C75.308996,8.14265138 75.7509487,7.95283395 76.3093449,7.95283395 C76.8727492,7.95283395 77.3178315,8.14204103 77.6446062,8.52046095 C77.9713808,8.8988808 78.1347654,9.3822744 78.1347654,9.97065623 L78.1347654,10.0512227 C78.1347654,10.6420459 77.9720069,11.1254395 77.6464846,11.5014179 C77.3209615,11.8773964 76.8777572,12.0653828 76.316857,12.0653828 C75.7559568,12.0653828 75.312126,11.876786 74.9853515,11.4995869 C74.6585771,11.1223877 74.4951923,10.6396045 74.4951923,10.0512227 L74.4951923,9.97065623 Z M75.2351262,10.0512227 C75.2351262,10.4711466 75.3258955,10.8178229 75.5074369,11.0912617 C75.6889783,11.3647006 75.9587822,11.5014179 76.316857,11.5014179 C76.6699236,11.5014179 76.93785,11.3647006 77.1206431,11.0912617 C77.3034362,10.8178229 77.3948315,10.4711466 77.3948315,10.0512227 L77.3948315,9.97065623 C77.3948315,9.55561508 77.3028108,9.2101596 77.1187654,8.9342793 C76.93472,8.658399 76.6649156,8.52046095 76.3093449,8.52046095 C75.9562783,8.52046095 75.6889783,8.658399 75.5074369,8.9342793 C75.3258955,9.2101596 75.2351262,9.55561508 75.2351262,9.97065623 L75.2351262,10.0512227 Z M79.7010215,8.02607618 L79.7536062,8.54609565 C79.8863185,8.3581065 80.0547115,8.2122339 80.2587892,8.10847365 C80.4628669,8.00471333 80.7001185,7.95283395 80.9705531,7.95283395 C81.2409869,7.95283395 81.4732315,8.0138685 81.6672923,8.1359394 C81.8613538,8.25801038 82.0072108,8.44111403 82.1048677,8.68525583 C82.2350769,8.4582039 82.4047215,8.2793727 82.6138069,8.14875683 C82.8228923,8.01814095 83.0676569,7.95283395 83.3481069,7.95283395 C83.76127,7.95283395 84.08804,8.09138243 84.3284254,8.36848335 C84.5688115,8.64558435 84.6890023,9.06245033 84.6890023,9.61909373 L84.6890023,11.9884785 L83.9490685,11.9884785 L83.9490685,9.61176953 C83.9490685,9.22114253 83.8802092,8.94465608 83.7424877,8.78230178 C83.6047669,8.6199474 83.3994408,8.53877145 83.1265023,8.53877145 C82.8735962,8.53877145 82.6688962,8.62421985 82.5123946,8.79511913 C82.3558938,8.9660184 82.2638723,9.18208073 82.2363285,9.44331248 L82.2363285,11.9884785 L81.4926385,11.9884785 L81.4926385,9.61176953 C81.4926385,9.24067388 81.4219008,8.96907015 81.2804238,8.79695018 C81.1389469,8.6248302 80.9354985,8.53877145 80.6700723,8.53877145 C80.4447108,8.53877145 80.2594162,8.58393705 80.1141831,8.67426953 C79.9689492,8.764602 79.8575223,8.89155383 79.7798977,9.0551289 L79.7798977,11.9884785 L79.0399638,11.9884785 L79.0399638,8.02607618 L79.7010215,8.02607618 Z" id="Downloadfrom" fill="#000000" fill-rule="nonzero"></path>
                <path d="M37.098107,21.4953144 L34.3847656,21.4953144 L33.7958233,23.2384785 L32.4759615,23.2384785 L35.1472355,15.7736348 L36.3619291,15.7736348 L39.0016526,23.2384785 L37.6817908,23.2384785 L37.098107,21.4953144 Z M34.7370793,20.4545429 L36.7510517,20.4545429 L35.7677284,17.5116719 L35.7361778,17.5116719 L34.7370793,20.4545429 Z M44.8016827,20.6493672 C44.8016827,21.4560119 44.6071233,22.1071284 44.2179988,22.6027364 C43.8288742,23.0983442 43.2872631,23.3461445 42.5931491,23.3461445 C42.2706314,23.3461445 41.9849272,23.2897486 41.7360276,23.1769551 C41.4871282,23.0641616 41.2732882,22.8983917 41.0945012,22.6796406 L41.0945012,25.371291 L39.8167068,25.371291 L39.8167068,17.6911152 L40.8946815,17.6911152 L41.0208834,18.3883808 C41.203176,18.1286139 41.4231508,17.9303738 41.6808143,17.7936543 C41.9384778,17.6569349 42.237328,17.5885762 42.5773738,17.5885762 C43.2784991,17.5885762 43.8244922,17.8594475 44.2153696,18.4011983 C44.6062469,18.942949 44.8016827,19.6564428 44.8016827,20.5417012 L44.8016827,20.6493672 Z M43.5291466,20.5417012 C43.5291466,19.9743155 43.4195975,19.5103309 43.2004958,19.1497334 C42.9813942,18.7891359 42.6544994,18.6088398 42.2198017,18.6088398 C41.9533741,18.6088398 41.7272645,18.6643813 41.5414663,18.7754658 C41.3556682,18.8865503 41.2066812,19.0412119 41.0945012,19.2394551 L41.0945012,21.7465352 C41.2066812,21.9413603 41.3556682,22.090895 41.5414663,22.1951435 C41.7272645,22.2993921 41.9568796,22.3515156 42.2303185,22.3515156 C42.6650162,22.3515156 42.9901582,22.1951451 43.2057542,21.8823994 C43.4213502,21.5696537 43.5291466,21.1586471 43.5291466,20.6493672 L43.5291466,20.5417012 Z M50.9014423,20.6493672 C50.9014423,21.4560119 50.7068829,22.1071284 50.3177584,22.6027364 C49.9286338,23.0983442 49.3870227,23.3461445 48.6929086,23.3461445 C48.370391,23.3461445 48.0846868,23.2897486 47.8357872,23.1769551 C47.5868878,23.0641616 47.3730478,22.8983917 47.1942608,22.6796406 L47.1942608,25.371291 L45.9164663,25.371291 L45.9164663,17.6911152 L46.9944411,17.6911152 L47.120643,18.3883808 C47.3029356,18.1286139 47.5229104,17.9303738 47.7805739,17.7936543 C48.0382375,17.6569349 48.3370876,17.5885762 48.6771334,17.5885762 C49.3782587,17.5885762 49.9242518,17.8594475 50.3151292,18.4011983 C50.7060065,18.942949 50.9014423,19.6564428 50.9014423,20.5417012 L50.9014423,20.6493672 Z M49.6289062,20.5417012 C49.6289062,19.9743155 49.5193571,19.5103309 49.3002554,19.1497334 C49.0811538,18.7891359 48.754259,18.6088398 48.3195613,18.6088398 C48.0531337,18.6088398 47.8270242,18.6643813 47.641226,18.7754658 C47.4554278,18.8865503 47.3064408,19.0412119 47.1942608,19.2394551 L47.1942608,21.7465352 C47.3064408,21.9413603 47.4554278,22.090895 47.641226,22.1951435 C47.8270242,22.2993921 48.0566392,22.3515156 48.3300782,22.3515156 C48.7647758,22.3515156 49.0899178,22.1951451 49.3055138,21.8823994 C49.5211098,21.5696537 49.6289062,21.1586471 49.6289062,20.6493672 L49.6289062,20.5417012 Z M58.8626803,21.3209981 C58.8626803,21.0099614 58.7496255,20.7553252 58.5235126,20.557082 C58.3225234,20.3808659 57.9837375,20.2208556 57.5071464,20.0770475 L57.3219652,20.0238789 C56.4981429,19.8017098 55.8627576,19.5103309 55.4157902,19.1497334 C54.9688229,18.7891359 54.7453425,18.3183154 54.7453425,17.7372578 C54.7453425,17.1356923 54.9907327,16.6400918 55.4815205,16.2504414 C55.9723082,15.860791 56.6033115,15.6659687 57.3745493,15.6659687 C58.2018772,15.6659687 58.8635542,15.8821531 59.3596004,16.3145283 C59.8556465,16.7469035 60.0949019,17.2809558 60.0773738,17.9167012 L60.066857,17.9474629 L58.8363882,17.9474629 C58.8363882,17.5543945 58.7023,17.2416535 58.4341196,17.0092304 C58.1659392,16.7768075 57.809247,16.6605977 57.3640325,16.6605977 C56.9328404,16.6605977 56.6006872,16.7597177 56.3675631,16.957961 C56.1344389,17.1562041 56.0178786,17.4125492 56.0178786,17.7270039 C56.0178786,18.0141147 56.1458321,18.2508067 56.4017428,18.4370869 C56.629219,18.6026693 56.9896443,18.760823 57.4830277,18.9115514 L57.6742788,18.9677266 C58.4770673,19.1864777 59.08879,19.4846924 59.5094652,19.8623799 C59.9301403,20.2400673 60.1404748,20.7228506 60.1404748,21.3107441 C60.1404748,21.9293996 59.891579,22.4232911 59.3937801,22.7924336 C58.8959811,23.1615761 58.2421915,23.3461445 57.4323918,23.3461445 C56.6541428,23.3461445 55.9758142,23.1444864 55.3973858,22.7411641 C54.8189575,22.3378418 54.5385115,21.7687556 54.5560397,21.0338887 L54.5665565,21.0031269 L55.7970252,21.0031269 C55.7970252,21.4508831 55.9556525,21.7884041 56.2729117,22.0157002 C56.5901708,22.2429962 56.9766604,22.3566426 57.4323918,22.3566426 C57.8846176,22.3566426 58.2360515,22.2635039 58.4867037,22.0772237 C58.737356,21.8909434 58.8626803,21.6388707 58.8626803,21.3209981 Z M62.953726,16.3427266 L62.953726,17.6911152 L63.9738582,17.6911152 L63.9738582,18.6139668 L62.953726,18.6139668 L62.953726,21.6798848 C62.953726,21.9088898 63.0045568,22.0720962 63.1062199,22.1695088 C63.2078832,22.2669214 63.3428477,22.3156269 63.5111178,22.3156269 C63.5812303,22.3156269 63.649589,22.3096456 63.7161959,22.2976826 C63.7828028,22.2857197 63.8459032,22.2694844 63.9054988,22.2489766 L64.0422175,23.1615742 C63.9335432,23.21968 63.8047133,23.2649676 63.6557242,23.2974385 C63.506735,23.3299094 63.3516134,23.3461445 63.1903545,23.3461445 C62.7206006,23.3461445 62.3516389,23.2119906 62.0834585,22.9436787 C61.8152781,22.6753668 61.6811899,22.2541064 61.6811899,21.6798848 L61.6811899,18.6139668 L60.8135517,18.6139668 L60.8135517,17.6911152 L61.6811899,17.6911152 L61.6811899,16.3427266 L62.953726,16.3427266 Z M64.7678786,20.4135273 C64.7678786,19.5863747 65.0001228,18.9087692 65.4646184,18.3806904 C65.9291139,17.8526116 66.5644992,17.5885762 67.3707932,17.5885762 C68.1876042,17.5885762 68.8282478,17.8526116 69.2927434,18.3806904 C69.7572389,18.9087692 69.9894832,19.5863747 69.9894832,20.4135273 L69.9894832,20.5211933 C69.9894832,21.3551819 69.7572389,22.0344964 69.2927434,22.5591572 C68.8282478,23.083818 68.1911098,23.3461445 67.3813101,23.3461445 C66.5680048,23.3461445 65.9291139,23.0829635 65.4646184,22.5565937 C65.0001228,22.0302239 64.7678786,21.3517639 64.7678786,20.5211933 L64.7678786,20.4135273 Z M66.0456731,20.5211933 C66.0456731,21.0646531 66.1543458,21.5055667 66.3716947,21.8439473 C66.5890435,22.1823278 66.9255786,22.3515156 67.3813101,22.3515156 C67.8265247,22.3515156 68.1604306,22.1814734 68.3830378,21.8413838 C68.6056452,21.5012942 68.7169471,21.0612351 68.7169471,20.5211933 L68.7169471,20.4135273 C68.7169471,19.8837395 68.6056452,19.4470984 68.3830378,19.1035908 C68.1604306,18.7600832 67.8230191,18.588332 67.3707932,18.588332 C66.9255787,18.588332 66.5934255,18.7600832 66.3743239,19.1035908 C66.1552222,19.4470984 66.0456731,19.8837395 66.0456731,20.4135273 L66.0456731,20.5211933 Z M73.9385517,18.8139179 L73.3916767,18.7934102 C73.1427772,18.7934102 72.9350719,18.8446792 72.7685547,18.9472187 C72.6020375,19.0497583 72.4732076,19.1950205 72.3820613,19.3830098 L72.3820613,23.2384785 L71.1042668,23.2384785 L71.1042668,17.6911152 L72.2716346,17.6911152 L72.3557692,18.4960469 C72.4994999,18.212354 72.6844189,17.9901883 72.9105318,17.8295429 C73.1366448,17.6688977 73.3969336,17.5885762 73.6914062,17.5885762 C73.76853,17.5885762 73.8403943,17.5945576 73.9070012,17.6065205 C73.9736081,17.6184835 74.0349556,17.6330097 74.0910457,17.6500996 L73.9385517,18.8139179 Z M77.2986777,23.3461445 C76.4678444,23.3461445 75.8184368,23.0906539 75.3504357,22.579665 C74.8824345,22.0686761 74.6484375,21.4064513 74.6484375,20.5929707 L74.6484375,20.3878926 C74.6484375,19.5744119 74.8824345,18.9036423 75.3504357,18.3755635 C75.8184368,17.8474847 76.4222719,17.5851582 77.1619592,17.5884791 C77.9261854,17.5884791 78.5046054,17.8184323 78.8972354,18.2781514 C79.2898654,18.7378705 79.4861777,19.3522442 79.4861777,20.121291 L79.4861777,20.7929219 L75.9682993,20.7929219 L75.9577825,20.8185566 C75.9718049,21.2731487 76.0945001,21.6422857 76.3258714,21.9259785 C76.5572428,22.2096713 76.9060474,22.3515156 77.3722954,22.3515156 C77.7193531,22.3515156 78.0199554,22.3105004 78.2741138,22.2284687 C78.5282715,22.1464371 78.7640215,22.0285184 78.98137,21.874709 L79.3967846,22.6898945 C79.1794362,22.8744658 78.8919792,23.0299818 78.5344054,23.1564473 C78.1768308,23.2829127 77.7649262,23.3461445 77.2986777,23.3461445 Z" id="AppStore" fill="#000000" fill-rule="nonzero"></path>
                <path d="M77.1619592,18.588332 C77.53005,18.588332 77.7991031,18.6985604 77.9691254,18.9190205 C78.1391485,19.1394806 78.2241585,19.4274416 78.2241585,19.7829121 L78.2241585,19.8803242 L75.9998498,19.8803242 L75.9893329,19.8546894 C76.0384117,19.478711 76.1628596,19.1736603 76.3626803,18.9395283 C76.562501,18.7053963 76.8289246,18.588332 77.1619592,18.588332 Z" id="路径" fill="#FFFFFF" fill-rule="nonzero"></path>
                <path d="M19.2557169,11.4161801 L19.4631381,11.4268576 C19.9267969,11.4390294 21.2479072,11.593786 22.099007,12.7275084 C22.0304109,12.7651832 20.5263778,13.5720041 20.5428916,15.2296964 C20.5613109,17.217768 22.448339,17.8744692 22.4705692,17.8814246 C22.4597717,17.9277935 22.1752249,18.8296709 21.4683039,19.745459 C20.8776152,20.5517002 20.2577097,21.3399735 19.2751339,21.3538842 C18.3198696,21.3741707 17.9984842,20.840927 16.9028519,20.840927 C15.7970573,20.840927 15.4547119,21.3399735 14.5388268,21.3741707 C13.602617,21.4060493 12.8868039,20.5134458 12.2745202,19.7147395 C11.0512229,18.0837094 10.0984992,15.1172516 11.3757842,13.0990402 C11.9950545,12.1090617 13.1237146,11.4720674 14.3298628,11.454679 C15.2673429,11.4372906 16.1374972,12.0325528 16.7135775,12.0325528 C17.2788602,12.0325528 18.3541677,11.3207885 19.4631381,11.4268576 L19.2557169,11.4161801 Z M19.4745708,8.25000038 C19.5679377,9.0266814 19.2313087,9.79119053 18.7384329,10.3539944 C18.2245973,10.9075246 17.401444,11.3306418 16.6005209,11.2761583 C16.4957213,10.5296171 16.9015816,9.73496805 17.3557132,9.25041188 C17.8695489,8.6997798 18.7612983,8.27840138 19.4745708,8.25000038 Z" id="Combined-Shape备份-2" fill="#000000" fill-rule="nonzero"></path>
            </g>
        </g>
    </g>
</svg>