<?xml version="1.0" encoding="UTF-8"?>
<svg width="100px" height="30px" viewBox="0 0 100 30" version="1.1" xmlns="http://www.w3.org/2000/svg" xmlns:xlink="http://www.w3.org/1999/xlink">
    <!-- Generator: Sketch 59.1 (86144) - https://sketch.com -->
    <title>编组 5</title>
    <desc>Created with Sketch.</desc>
    <g id="页面1" stroke="none" stroke-width="1" fill="none" fill-rule="evenodd" opacity="0.6">
        <g id="登陆" transform="translate(-1175.000000, -700.000000)">
            <g id="编组-5" transform="translate(1175.000000, 700.000000)">
                <rect id="Rectangle备份-2" fill="#FAFAFA" x="0" y="0" width="100" height="30" rx="15"></rect>
                <path d="M32.814014,11.9230769 L32.814014,6.45432692 L34.5476017,6.45432692 C35.2667793,6.45432692 35.8452669,6.67405128 36.283082,7.11350661 C36.7208971,7.55296192 36.9398014,8.12073969 36.9398014,8.816857 L36.9398014,9.56430292 C36.9398014,10.2629242 36.7208971,10.8307019 36.283082,11.2676532 C35.8452669,11.7046045 35.2667793,11.9230769 34.5476017,11.9230769 L32.814014,11.9230769 Z M33.5596839,7.03650842 L33.5596839,11.3446515 L34.5476017,11.3446515 C35.0573346,11.3446515 35.4591848,11.1781367 35.7531643,10.8451022 C36.047144,10.5120676 36.1941316,10.0851388 36.1941316,9.56430292 L36.1941316,8.80934492 C36.1941316,8.29351708 36.047144,7.86909223 35.7531643,7.53605769 C35.4591848,7.20302318 35.0573346,7.03650842 34.5476017,7.03650842 L33.5596839,7.03650842 Z M37.7876696,9.85351562 C37.7876696,9.25255108 37.9516901,8.75738877 38.279736,8.36801385 C38.6077819,7.97863885 39.0531605,7.78395431 39.6158854,7.78395431 C40.1836571,7.78395431 40.6321901,7.97801285 40.9614977,8.36613585 C41.2908053,8.75425877 41.4554567,9.25004708 41.4554567,9.85351562 L41.4554567,9.93614785 C41.4554567,10.5421204 41.2914361,11.0379087 40.9633902,11.4235276 C40.6353443,11.8091465 40.188704,12.0019532 39.6234557,12.0019532 C39.0582074,12.0019532 38.6109361,11.8085205 38.2816285,11.4216496 C37.9523209,11.0347787 37.7876696,10.5396164 37.7876696,9.93614785 L37.7876696,9.85351562 Z M38.5333394,9.93614785 C38.5333394,10.3668391 38.6248123,10.7224045 38.807761,11.0028545 C38.9907097,11.2833047 39.2626052,11.4235276 39.6234557,11.4235276 C39.9792593,11.4235276 40.2492622,11.2833047 40.4334726,11.0028545 C40.617683,10.7224045 40.7097868,10.3668391 40.7097868,9.93614785 L40.7097868,9.85351562 C40.7097868,9.42783238 40.6170522,9.07351908 40.4315801,8.79056492 C40.246108,8.50761077 39.9742125,8.36613585 39.6158854,8.36613585 C39.2600818,8.36613585 38.9907097,8.50761077 38.807761,8.79056492 C38.6248123,9.07351908 38.5333394,9.42783238 38.5333394,9.85351562 L38.5333394,9.93614785 Z M43.4161519,10.4432092 L43.51078,10.9652945 L43.5334908,10.9652945 L43.631904,10.4432092 L44.4494913,7.85907454 L45.0475412,7.85907454 L45.8689135,10.4432092 L45.9748971,11.0253906 L45.9976078,11.0253906 L46.1187319,10.4432092 L46.724352,7.85907454 L47.5040879,7.85907454 L46.3155584,11.9230769 L45.7137233,11.9230769 L44.9037064,9.44786662 L44.7485162,8.80183292 L44.7258055,8.80183292 L44.5819707,9.44786662 L43.7870943,11.9230769 L43.1852592,11.9230769 L41.9967296,7.85907454 L42.7726805,7.85907454 L43.4161519,10.4432092 Z M48.9007994,7.85907454 L48.9537912,8.46379208 C49.0900564,8.24844646 49.2610162,8.08130569 49.4666757,7.96236477 C49.6723353,7.84342385 49.9063799,7.78395431 50.1688166,7.78395431 C50.6104168,7.78395431 50.9523365,7.91228338 51.1945857,8.16894531 C51.436835,8.42560723 51.5579578,8.82186231 51.5579578,9.35772238 L51.5579578,11.9230769 L50.8122881,11.9230769 L50.8122881,9.37274638 C50.8122881,9.01467169 50.7410022,8.76051762 50.5984284,8.61027646 C50.4558547,8.46003531 50.2382121,8.38491585 49.9454942,8.38491585 C49.7158621,8.38491585 49.52093,8.43061354 49.3606922,8.52201023 C49.2004544,8.61340692 49.073654,8.74173592 48.9802871,8.90700123 L48.9802871,11.9230769 L48.2346172,11.9230769 L48.2346172,7.85907454 L48.9007994,7.85907454 Z M53.4467357,11.9230769 L52.7010659,11.9230769 L52.7010659,6.06370192 L53.4467357,6.06370192 L53.4467357,11.9230769 Z M54.4195131,9.85351562 C54.4195131,9.25255108 54.5835336,8.75738877 54.9115795,8.36801385 C55.2396253,7.97863885 55.685004,7.78395431 56.2477289,7.78395431 C56.8155006,7.78395431 57.2640336,7.97801285 57.5933412,8.36613585 C57.9226488,8.75425877 58.0873002,9.25004708 58.0873002,9.85351562 L58.0873002,9.93614785 C58.0873002,10.5421204 57.9232797,11.0379087 57.5952338,11.4235276 C57.2671879,11.8091465 56.8205474,12.0019532 56.2552991,12.0019532 C55.6900509,12.0019532 55.2427796,11.8085205 54.913472,11.4216496 C54.5841644,11.0347787 54.4195131,10.5396164 54.4195131,9.93614785 L54.4195131,9.85351562 Z M55.1651829,9.93614785 C55.1651829,10.3668391 55.2566559,10.7224045 55.4396045,11.0028545 C55.6225532,11.2833047 55.8944487,11.4235276 56.2552991,11.4235276 C56.6111028,11.4235276 56.8811057,11.2833047 57.0653161,11.0028545 C57.2495265,10.7224045 57.3416303,10.3668391 57.3416303,9.93614785 L57.3416303,9.85351562 C57.3416303,9.42783238 57.2488957,9.07351908 57.0634236,8.79056492 C56.8779515,8.50761077 56.606056,8.36613585 56.2477289,8.36613585 C55.8919253,8.36613585 55.6225532,8.50761077 55.4396045,8.79056492 C55.2566559,9.07351908 55.1651829,9.42783238 55.1651829,9.85351562 L55.1651829,9.93614785 Z M62.2850048,11.9230769 L61.5166243,11.9230769 L61.4737262,11.6968818 C61.4678382,11.6623822 61.4625811,11.6294823 61.4579548,11.5981821 C61.444076,11.5042814 61.435875,11.4097561 61.4333515,11.3146034 C61.2945629,11.5099168 61.1135095,11.6733016 60.8901859,11.8047626 C60.6668624,11.9362236 60.4265093,12.0019532 60.1691195,12.0019532 C59.7426598,12.0019532 59.417773,11.8936559 59.1944495,11.6770583 C58.971126,11.4604607 58.8594658,11.1618608 58.8594658,10.78125 C58.8594658,10.3931271 59.0178087,10.0895193 59.3344991,9.87041769 C59.6511896,9.651316 60.0807971,9.54176685 60.6233346,9.54176685 L61.4333515,9.54176685 L61.4333515,9.13987377 C61.4333515,8.901992 61.3601731,8.71356738 61.2138142,8.57459438 C61.0674553,8.43562131 60.8605371,8.36613585 60.5930536,8.36613585 C60.3508043,8.36613585 60.1552414,8.42623138 60.006359,8.54642431 C59.8574767,8.66661715 59.7830366,8.81059615 59.7830366,8.97836538 L59.075218,8.98587738 L59.0676478,8.96334138 C59.0499838,8.66786708 59.1894012,8.39743715 59.4859042,8.15204323 C59.7824072,7.90664938 60.1653319,7.78395431 60.6346899,7.78395431 C61.099001,7.78395431 61.472463,7.90101546 61.7550872,8.13514123 C62.0377114,8.369267 62.1790213,8.70667846 62.1790213,9.14738585 L62.1790213,11.1042668 C62.1790213,11.2494999 62.1865915,11.3897228 62.2017321,11.5249399 C62.2168726,11.6601569 62.24463,11.7928679 62.2850048,11.9230769 Z M60.2788881,11.3822115 C60.5488951,11.3822115 60.7924024,11.3133521 61.0094174,11.175631 C61.2264324,11.03791 61.3677423,10.8801592 61.4333515,10.7023738 L61.4333515,10.0413161 L60.5968387,10.0413161 C60.2965505,10.0413161 60.0561974,10.1164355 59.8757722,10.2666767 C59.6953469,10.4169178 59.6051357,10.5934485 59.6051357,10.796274 C59.6051357,10.9765634 59.661912,11.1192903 59.7754664,11.2244592 C59.8890207,11.3296279 60.0568263,11.3822115 60.2788881,11.3822115 Z M63.0912367,9.96619592 C63.0912367,9.312647 63.2319158,8.78555892 63.5132782,8.38491585 C63.7946407,7.98427285 64.1889207,7.78395431 64.6961301,7.78395431 C64.935856,7.78395431 65.1484517,7.827774 65.3339238,7.91541469 C65.5193959,8.00305531 65.6777388,8.13075838 65.8089571,8.29852762 L65.8089571,6.06370192 L66.554627,6.06370192 L66.554627,11.9230769 L65.9830729,11.9230769 L65.8695191,11.4085036 C65.7357774,11.6038171 65.5704952,11.751552 65.3736676,11.8517128 C65.1768401,11.9518735 64.9484731,12.0019532 64.6885598,12.0019532 C64.1889207,12.0019532 63.797795,11.8222925 63.5151708,11.4629658 C63.2325467,11.103639 63.0912367,10.6310125 63.0912367,10.0450722 L63.0912367,9.96619592 Z M63.8369065,10.0450722 C63.8369065,10.4557312 63.9214402,10.7843788 64.0905099,11.0310246 C64.2595798,11.2776705 64.5220125,11.4009916 64.8778161,11.4009916 C65.099878,11.4009916 65.286609,11.3509119 65.4380148,11.2507512 C65.5894205,11.1505905 65.7130668,11.0103675 65.8089571,10.8300782 L65.8089571,8.93329323 C65.7130668,8.765524 65.5887897,8.632187 65.4361222,8.53327823 C65.2834547,8.43436946 65.0998779,8.38491585 64.8853864,8.38491585 C64.5270593,8.38491585 64.262734,8.53139877 64.0924025,8.824369 C63.922071,9.11733923 63.8369065,9.49794438 63.8369065,9.96619592 L63.8369065,10.0450722 Z M69.9044634,11.9230769 L69.9044634,8.40745192 L69.2647771,8.40745192 L69.2647771,7.85907454 L69.9044634,7.85907454 L69.9044634,7.34450123 C69.9044634,6.91130593 70.0186469,6.57639842 70.2470173,6.33976863 C70.4753878,6.10313884 70.793966,5.98482572 71.2027616,5.98482572 C71.2885582,5.98482572 71.3749844,5.99171167 71.4620428,6.00548378 L71.6487755,6.04053982 C71.6820005,6.0476345 71.7162769,6.05535519 71.7516049,6.06370192 L71.6607619,6.62710337 L71.5573019,6.60874065 C71.5379557,6.60595843 71.5175581,6.60331532 71.4961089,6.6008113 C71.4317614,6.59329924 71.3642607,6.58954327 71.2936047,6.58954327 C71.0765897,6.58954327 70.9150926,6.65402079 70.8091085,6.78297776 C70.7031245,6.91193474 70.6501333,7.09910735 70.6501333,7.34450123 L70.6501333,7.85907454 L71.3920179,7.85907454 L71.3920179,8.40745192 L70.6501333,8.40745192 L70.6501333,11.9230769 L69.9044634,11.9230769 Z M74.0832425,8.51262015 L73.7009448,8.49008415 C73.5041172,8.49008415 73.3382042,8.53640777 73.2032007,8.62905646 C73.0681972,8.72170515 72.9641073,8.85191223 72.8909278,9.01968146 L72.8909278,11.9230769 L72.145258,11.9230769 L72.145258,7.85907454 L72.8114402,7.85907454 L72.8833575,8.452524 C72.9994353,8.24218646 73.1426378,8.07817569 73.3129694,7.96048677 C73.4833009,7.84279792 73.6794946,7.78395431 73.9015564,7.78395431 C73.9570719,7.78395431 74.0100631,7.78833631 74.0605317,7.79710038 L74.1496925,7.81546308 C74.1625899,7.81866262 74.174506,7.82193177 74.1854409,7.82527046 L74.0832425,8.51262015 Z M74.6850775,9.85351562 C74.6850775,9.25255108 74.849098,8.75738877 75.1771439,8.36801385 C75.5051898,7.97863885 75.9505684,7.78395431 76.5132933,7.78395431 C77.0810651,7.78395431 77.5295977,7.97801285 77.8589054,8.36613585 C78.1882132,8.75425877 78.3528643,9.25004708 78.3528643,9.85351562 L78.3528643,9.93614785 C78.3528643,10.5421204 78.1888442,11.0379087 77.8607984,11.4235276 C77.5327519,11.8091465 77.0861119,12.0019532 76.5208636,12.0019532 C75.9556153,12.0019532 75.508344,11.8085205 75.1790364,11.4216496 C74.8497288,11.0347787 74.6850775,10.5396164 74.6850775,9.93614785 L74.6850775,9.85351562 Z M75.4307474,9.93614785 C75.4307474,10.3668391 75.5222203,10.7224045 75.705169,11.0028545 C75.8881177,11.2833047 76.1600131,11.4235276 76.5208636,11.4235276 C76.8766672,11.4235276 77.1466705,11.2833047 77.3308806,11.0028545 C77.5150907,10.7224045 77.6071946,10.3668391 77.6071946,9.93614785 L77.6071946,9.85351562 C77.6071946,9.42783238 77.5144605,9.07351908 77.3289884,8.79056492 C77.1435163,8.50761077 76.8716204,8.36613585 76.5132933,8.36613585 C76.1574898,8.36613585 75.8881177,8.50761077 75.705169,8.79056492 C75.5222203,9.07351908 75.4307474,9.42783238 75.4307474,9.85351562 L75.4307474,9.93614785 Z M79.931262,7.85907454 L79.9842543,8.39242785 C80.1179953,8.19961846 80.2876938,8.05000554 80.4933535,7.94358477 C80.6990132,7.83716392 80.9381039,7.78395431 81.2106349,7.78395431 C81.4831651,7.78395431 81.7172101,7.84655385 81.9127752,7.97175477 C82.1083411,8.09695577 82.2553287,8.28475438 82.3537426,8.53515623 C82.4849612,8.30228246 82.6559209,8.11886585 82.8666271,7.98490085 C83.0773333,7.85093585 83.3239953,7.78395431 83.6066194,7.78395431 C84.0229853,7.78395431 84.3522884,7.92605531 84.5945372,8.21026138 C84.8367868,8.49446754 84.9579093,8.92202238 84.9579093,9.49293869 L84.9579093,11.9230769 L84.2122395,11.9230769 L84.2122395,9.48542669 C84.2122395,9.08478362 84.1428465,8.80120777 84.0040574,8.63469054 C83.865269,8.46817323 83.6583512,8.38491585 83.3832969,8.38491585 C83.1284302,8.38491585 82.9221434,8.47255523 82.7644287,8.64783654 C82.6067147,8.82311785 82.5139798,9.04472023 82.4862225,9.31265023 L82.4862225,11.9230769 L81.7367674,11.9230769 L81.7367674,9.48542669 C81.7367674,9.10481577 81.6654814,8.82624785 81.5229078,8.64971454 C81.3803341,8.47318123 81.1753085,8.38491585 80.9078248,8.38491585 C80.6807163,8.38491585 80.4939853,8.43123954 80.3476264,8.52388823 C80.2012667,8.61653692 80.088976,8.74674392 80.0107496,8.91451323 L80.0107496,11.9230769 L79.2650798,11.9230769 L79.2650798,7.85907454 L79.931262,7.85907454 Z" id="Downloadfrom" fill="#000000" fill-rule="nonzero"></path>
                <path d="M38.6991279,22.425631 C38.4871598,22.7236092 38.1488991,22.9891565 37.6843357,23.2222806 C37.2197722,23.4554048 36.6200881,23.5719652 35.8852653,23.5719652 C34.9738024,23.5719652 34.2239764,23.2801262 33.6357649,22.6964393 C33.0475534,22.1127525 32.753452,21.3581777 32.753452,20.4326923 L32.753452,18.8341346 C32.753452,17.9086492 33.0378383,17.1540745 33.6066195,16.5703876 C34.1754005,15.9867008 34.9066795,15.6948618 35.8004784,15.6948618 C36.6978102,15.6948618 37.3972944,15.9192185 37.8989522,16.3679387 C38.4006102,16.8166589 38.6443698,17.4020898 38.6302386,18.1242488 L38.6143411,18.1557993 L37.3902313,18.1557993 C37.3902313,17.7246072 37.2551037,17.3775554 36.9848443,17.1146334 C36.714585,16.8517115 36.3268658,16.7202524 35.8216751,16.7202524 C35.2882221,16.7202524 34.8581098,16.9183173 34.5313257,17.3144532 C34.2045416,17.7105889 34.0411519,18.2136388 34.0411519,18.8236178 L34.0411519,20.4326923 C34.0411519,21.0496825 34.2116071,21.5571144 34.5525224,21.955003 C34.8934378,22.3528916 35.3376809,22.5518329 35.8852653,22.5518329 C36.2986031,22.5518329 36.6253823,22.5053841 36.8656129,22.412485 C37.1058434,22.3195858 37.28778,22.2065311 37.4114281,22.0733173 L37.4114281,20.4905348 L35.7951792,20.4905348 L35.7951792,19.5335036 L38.6991279,19.5335036 L38.6991279,22.425631 Z M39.9020409,20.5641526 C39.9020409,19.715791 40.1360856,19.020811 40.6041818,18.4791917 C41.0722781,17.9375724 41.7125888,17.6667668 42.5251333,17.6667668 C43.348276,17.6667668 43.993886,17.9375724 44.4619822,18.4791917 C44.9300784,19.020811 45.1641231,19.715791 45.1641231,20.5641526 L45.1641231,20.6745793 C45.1641231,21.5299522 44.9300784,22.226685 44.4619822,22.7647987 C43.993886,23.3029123 43.3518088,23.5719652 42.5357316,23.5719652 C41.7161216,23.5719652 41.0722781,23.3020359 40.6041818,22.7621695 C40.1360856,22.222303 39.9020409,21.5264465 39.9020409,20.6745793 L39.9020409,20.5641526 Z M41.1897408,20.6745793 C41.1897408,21.2319739 41.299256,21.684193 41.5182898,22.03125 C41.7373234,22.378307 42.0764674,22.5518329 42.5357316,22.5518329 C42.9843974,22.5518329 43.3208918,22.3774306 43.5452247,22.0286208 C43.7695576,21.6798109 43.8817224,21.2284683 43.8817224,20.6745793 L43.8817224,20.5641526 C43.8817224,20.0207805 43.7695576,19.5729435 43.5452247,19.220628 C43.3208918,18.8683125 42.9808647,18.6921575 42.5251333,18.6921575 C42.0764674,18.6921575 41.7417395,18.8683125 41.5209393,19.220628 C41.3001392,19.5729435 41.1897408,20.0207805 41.1897408,20.5641526 L41.1897408,20.6745793 Z M46.0490855,20.5641526 C46.0490855,19.715791 46.2831302,19.020811 46.7512264,18.4791917 C47.2193226,17.9375724 47.8596334,17.6667668 48.6721778,17.6667668 C49.4953206,17.6667668 50.1409305,17.9375724 50.6090267,18.4791917 C51.077123,19.020811 51.3111676,19.715791 51.3111676,20.5641526 L51.3111676,20.6745793 C51.3111676,21.5299522 51.077123,22.226685 50.6090267,22.7647987 C50.1409305,23.3029123 49.4988534,23.5719652 48.6827761,23.5719652 C47.8631661,23.5719652 47.2193226,23.3020359 46.7512264,22.7621695 C46.2831302,22.222303 46.0490855,21.5264465 46.0490855,20.6745793 L46.0490855,20.5641526 Z M47.3367853,20.6745793 C47.3367853,21.2319739 47.4463006,21.684193 47.6653343,22.03125 C47.884368,22.378307 48.2235119,22.5518329 48.6827761,22.5518329 C49.131442,22.5518329 49.4679364,22.3774306 49.6922692,22.0286208 C49.9166022,21.6798109 50.028767,21.2284683 50.028767,20.6745793 L50.028767,20.5641526 C50.028767,20.0207805 49.9166022,19.5729435 49.6922692,19.220628 C49.4679364,18.8683125 49.1279092,18.6921575 48.6721778,18.6921575 C48.2235119,18.6921575 47.888784,18.8683125 47.6679839,19.220628 C47.4471838,19.5729435 47.3367853,20.0207805 47.3367853,20.5641526 L47.3367853,20.6745793 Z M52.2332243,20.695613 C52.2332243,19.7876557 52.4292919,19.0558672 52.8214329,18.5002254 C53.2135739,17.9445835 53.7646827,17.6667668 54.4747759,17.6667668 C54.8174577,17.6667668 55.1186246,17.7395075 55.3782855,17.884991 C55.6379464,18.0304745 55.8578601,18.2399325 56.0380329,18.5133714 L56.1652132,17.7719351 L57.2356468,17.7719351 L57.2356468,23.4615385 C57.2356468,24.1942144 57.0077845,24.7603646 56.552053,25.160006 C56.0963216,25.5596475 55.4498285,25.7594652 54.6125545,25.7594652 C54.3334632,25.7594652 54.0322963,25.7200275 53.709045,25.6411508 C53.3857936,25.5622742 53.0934586,25.4579834 52.8320312,25.3282752 L53.0386991,24.3239183 C53.2577329,24.4325927 53.5023757,24.5176028 53.772635,24.5789513 C54.0428944,24.6402998 54.319332,24.6709735 54.6019561,24.6709735 C55.068286,24.6709735 55.4091963,24.5719411 55.6246972,24.3738732 C55.8401981,24.1758053 55.947947,23.8716968 55.947947,23.4615385 L55.947947,22.8778545 C55.767774,23.1057203 55.5549259,23.2783698 55.3093962,23.3958083 C55.0638664,23.5132468 54.7821298,23.5719652 54.4641776,23.5719652 C53.76115,23.5719652 53.2135739,23.317811 52.8214329,22.8094952 C52.4292919,22.3011794 52.2332243,21.6333675 52.2332243,20.8060397 L52.2332243,20.695613 Z M53.515625,20.8060397 C53.515625,21.3318836 53.6180747,21.7507997 53.8229772,22.0628005 C54.0278798,22.3748012 54.3511263,22.5307993 54.7927265,22.5307993 C55.068285,22.5307993 55.3005633,22.4738337 55.4895682,22.3599008 C55.6785731,22.245968 55.8313645,22.0820824 55.947947,21.8682392 L55.947947,19.3757512 C55.8278317,19.1689192 55.673274,19.0067865 55.484269,18.8893479 C55.2952641,18.7719095 55.068285,18.7131911 54.8033249,18.7131911 C54.3617247,18.7131911 54.0367117,18.8963573 53.8282764,19.2626953 C53.6198411,19.6290333 53.515625,20.1066677 53.515625,20.695613 L53.515625,20.8060397 Z M59.9541243,23.4615385 L58.6664244,23.4615385 L58.6664244,15.2584135 L59.9541243,15.2584135 L59.9541243,23.4615385 Z M63.8278222,23.5719652 C62.9905481,23.5719652 62.3361064,23.3099235 61.8644774,22.7858323 C61.3928483,22.2617412 61.1570373,21.5825362 61.1570373,20.7481971 L61.1570373,20.5378606 C61.1570373,19.7035215 61.3928483,19.0155526 61.8644774,18.4739333 C62.3361064,17.932314 62.9446224,17.6632612 63.6900436,17.6666673 C64.4601944,17.6666673 65.043098,17.9025167 65.4387718,18.3740235 C65.8344456,18.8455302 66.0322795,19.4756571 66.0322795,20.2644231 L66.0322795,20.9532752 L62.4871305,20.9532752 L62.4765322,20.9795673 C62.4906634,21.4458156 62.6143096,21.8244176 62.8474746,22.1153846 C63.0806395,22.4063516 63.432148,22.5518329 63.9020107,22.5518329 C64.2517581,22.5518329 64.5546912,22.5097661 64.8108194,22.425631 C65.0669475,22.341496 65.3045249,22.2205537 65.5235586,22.0628005 L65.9421936,22.8988882 C65.7231598,23.0881921 65.4334744,23.2476957 65.0731286,23.3774038 C64.7127829,23.507112 64.2976848,23.5719652 63.8278222,23.5719652 Z M63.6900436,18.6921575 C63.3544274,18.6921575 63.0859385,18.8122234 62.8845688,19.0523588 C62.6831991,19.2924942 62.5577865,19.6053667 62.5083273,19.9909855 L62.5189257,20.0172776 L64.7604772,20.0172776 L64.7604772,19.9173678 C64.7604772,19.5527826 64.6748081,19.257438 64.5034672,19.0313252 C64.3321263,18.8052122 64.0609878,18.6921575 63.6900436,18.6921575 Z M71.1989765,20.5588942 L71.1989765,23.4615385 L69.9112767,23.4615385 L69.9112767,15.8052885 L72.8682171,15.8052885 C73.7196223,15.8052885 74.3864287,16.0235105 74.8686561,16.4599609 C75.3508836,16.8964115 75.5919937,17.4704492 75.5919937,18.1820914 C75.5919937,18.9007448 75.3508836,19.4765353 74.8686561,19.9094802 C74.3864287,20.3424251 73.7196223,20.5588942 72.8682171,20.5588942 L71.1989765,20.5588942 Z M71.1989765,19.5335036 L72.8682171,19.5335036 C73.3451453,19.5335036 73.7037193,19.4073029 73.9439498,19.1548978 C74.1841804,18.9024927 74.3042939,18.5817327 74.3042939,18.1926082 C74.3042939,17.8034836 74.1841804,17.4792181 73.9439498,17.2198017 C73.7037193,16.9603853 73.3451453,16.8306791 72.8682171,16.8306791 L71.1989765,16.8306791 L71.1989765,19.5335036 Z M78.0614101,23.4615385 L76.77371,23.4615385 L76.77371,15.2584135 L78.0614101,15.2584135 L78.0614101,23.4615385 Z M82.9578488,23.4615385 C82.9119225,23.3178078 82.8739457,23.1775848 82.8439163,23.0408654 C82.8138876,22.9041459 82.7935744,22.7674285 82.782976,22.6307092 C82.609869,22.8971368 82.3784736,23.1206171 82.0887837,23.3011568 C81.7990938,23.4816966 81.4758473,23.5719652 81.1190349,23.5719652 C80.5219915,23.5719652 80.0636171,23.4194727 79.7438984,23.1144832 C79.4241798,22.8094937 79.2643233,22.3905776 79.2643233,21.8577224 C79.2643233,21.307339 79.4833535,20.8787826 79.9214209,20.5720402 C80.3594884,20.2652979 80.9759527,20.1119291 81.7708333,20.1119291 L82.7723775,20.1119291 L82.7723775,19.6123798 C82.7723775,19.3144015 82.6849419,19.0812809 82.5100682,18.9130108 C82.3351946,18.7447408 82.0817202,18.660607 81.7496364,18.660607 C81.456414,18.660607 81.2232527,18.7298421 81.0501457,18.8683143 C80.877038,19.0067865 80.790486,19.1864472 80.790486,19.4073017 L79.5504783,19.4125601 L79.5451791,19.3810096 C79.5204496,18.9322894 79.7226992,18.5344068 80.1519349,18.1873498 C80.5811705,17.8402928 81.1402279,17.6667668 81.829124,17.6667668 C82.496824,17.6667668 83.0355682,17.8350344 83.4453729,18.1715745 C83.8551783,18.5081147 84.0600775,18.9918838 84.0600775,19.6228966 L84.0600775,22.1521935 C84.0600775,22.3870705 84.0759752,22.6123036 84.1077698,22.8278996 C84.1395651,23.0434957 84.1907899,23.2547065 84.2614465,23.4615385 L82.9578488,23.4615385 Z M81.3839938,22.5465745 C81.7054783,22.5465745 81.9960473,22.4659463 82.2557078,22.3046875 C82.515369,22.1434287 82.6875907,21.9593861 82.7723775,21.7525541 L82.7723775,20.9112079 L81.7496364,20.9112079 C81.3751597,20.9112079 81.0819411,21.0032292 80.8699736,21.1872746 C80.6580054,21.37132 80.5520225,21.5877892 80.5520225,21.8366887 C80.5520225,22.0540375 80.6235612,22.2266871 80.7666395,22.3546425 C80.9097178,22.4825978 81.1155008,22.5465745 81.3839938,22.5465745 Z M87.3084729,21.179387 L87.4356527,21.7472957 L87.4674481,21.7472957 L88.7233527,17.7719351 L90.1329333,17.7719351 L87.7589023,24.3239183 C87.6069922,24.7200541 87.3932605,25.0583419 87.1177023,25.3387921 C86.8421434,25.6192422 86.4517752,25.7594652 85.9465845,25.7594652 C85.8406,25.7594652 85.726669,25.7489484 85.6047876,25.7279147 C85.4829054,25.7068809 85.3654419,25.6823419 85.2523922,25.6542968 L85.3954698,24.6657152 L85.5915395,24.6814904 C85.6763264,24.6885016 85.7399163,24.6920072 85.7823101,24.6920072 C86.0154744,24.6920072 86.2018271,24.6131318 86.3413729,24.4553786 C86.4809186,24.2976254 86.5948496,24.1153355 86.6831698,23.9085036 L86.8951372,23.3931791 L84.8125605,17.7719351 L86.2168426,17.7719351 L87.3084729,21.179387 Z" id="GooglePlay" fill="#000000" fill-rule="nonzero"></path>
                <path d="M17.0594043,15.5514288 L18.960963,17.4480357 L13.0368097,20.6312578 C12.3664328,20.9910088 11.9487664,21.1656635 11.465284,21.1656635 L11.465284,21.1656635 L11.410218,21.1656635 L17.0594043,15.5514288 Z M10.7068953,9.261337 L16.5100304,15.0173687 L10.7068953,20.7623577 C10.5639384,20.5332408 10.4651163,20.1625823 10.4651163,19.6285222 L10.4651163,19.6285222 L10.4651163,10.3949472 C10.4651163,9.86094715 10.5639384,9.49021346 10.7068953,9.261337 L10.7068953,9.261337 Z M19.6750506,12.9568343 L20.9279894,13.6326915 C21.3895331,13.8835182 22.0930374,14.3413462 22.0930374,15.0173687 C22.0930374,15.6821231 21.3895331,16.1399362 20.9279894,16.3907778 L20.9279894,16.3907778 L19.6750506,17.0668003 L17.6088387,15.0173687 L19.6750506,12.9568343 Z M11.465284,8.85797115 C11.9488269,8.85797115 12.3664328,9.03238538 13.0368097,9.39203131 L13.0368097,9.39203131 L18.960963,12.5753134 L17.0594043,14.4720405 L11.410218,8.85797115 L11.465284,8.85797115 Z" id="形状结合" fill="#000000" fill-rule="nonzero"></path>
            </g>
        </g>
    </g>
</svg>