<?xml version="1.0" encoding="UTF-8"?>
<svg width="12px" height="12px" viewBox="0 0 12 12" version="1.1" xmlns="http://www.w3.org/2000/svg" xmlns:xlink="http://www.w3.org/1999/xlink">
    <!-- Generator: Sketch 59.1 (86144) - https://sketch.com -->
    <title>home</title>
    <desc>Created with Sketch.</desc>
    <g id="页面1" stroke="none" stroke-width="1" fill="none" fill-rule="evenodd">
        <g id="ddxf" transform="translate(-50.000000, -94.000000)" fill="#FFFFFF" fill-rule="nonzero">
            <g id="编组-7" transform="translate(0.000000, 70.000000)">
                <g id="home" transform="translate(50.000000, 24.000000)">
                    <path d="M6.00203804,1.0125 L10.6618789,5.584375 C10.4245924,5.615625 10.2018634,5.7203125 10.0242624,5.8875 L10.0213509,5.890625 L10.0184394,5.89375 C9.84666149,6.0578125 9.64285714,6.346875 9.64285714,6.8015625 L9.64285714,11.059375 L7.9367236,11.059375 L7.9367236,9.25 C7.9367236,8.5703125 7.41265528,8.01875 6.76776009,8.01875 L5.23049301,8.01875 C4.58559783,8.01875 4.0615295,8.571875 4.0615295,9.25 L4.0615295,11.0578125 L2.3757764,11.0578125 L2.3757764,6.7921875 C2.3757764,6.1671875 1.93177407,5.6484375 1.3582104,5.5703125 L6.00203804,1.0125 M6.00203804,0 C5.83899457,0 5.67595109,0.059375 5.55949146,0.1765625 L0.197981366,5.4375 C0.00582298137,5.6140625 -0.0494953416,5.8796875 0.0538625776,6.121875 C0.157220497,6.3578125 0.377038043,6.496875 0.630337733,6.496875 L1.20681289,6.496875 C1.37131211,6.496875 1.50232919,6.6296875 1.50232919,6.790625 L1.50232919,11.375 C1.50232919,11.7140625 1.78328804,11.99375 2.12684394,11.99375 L4.31046196,11.99375 C4.65401786,11.99375 4.93497671,11.7140625 4.93497671,11.375 L4.93497671,9.25 C4.93497671,9.0875 5.06599379,8.95625 5.23049301,8.95625 L6.76776009,8.95625 C6.93225932,8.95625 7.0632764,9.0890625 7.0632764,9.25 L7.0632764,11.3765625 C7.0632764,11.715625 7.34423525,11.9953125 7.69506988,11.9953125 L9.87868789,11.9953125 C10.2295225,11.9953125 10.5177601,11.715625 10.5177601,11.3765625 L10.5177601,6.7984375 C10.5177601,6.7109375 10.5381405,6.6515625 10.6007376,6.5921875 C10.6560559,6.540625 10.7317547,6.5109375 10.8132764,6.5109375 L11.3548137,6.5109375 C11.6095691,6.5109375 11.8279309,6.3640625 11.9312888,6.1359375 C12.0477484,5.89375 11.9924301,5.6203125 11.8148292,5.44375 L6.44604037,0.1765625 C6.32958075,0.059375 6.16508152,0 6.00203804,0 Z" id="形状"></path>
                </g>
            </g>
        </g>
    </g>
</svg>