<?xml version="1.0" encoding="UTF-8"?>
<svg width="12px" height="12px" viewBox="0 0 12 12" version="1.1" xmlns="http://www.w3.org/2000/svg" xmlns:xlink="http://www.w3.org/1999/xlink">
    <!-- Generator: Sketch 59.1 (86144) - https://sketch.com -->
    <title>home</title>
    <desc>Created with Sketch.</desc>
    <g id="页面1" stroke="none" stroke-width="1" fill="none" fill-rule="evenodd">
        <g id="首页" transform="translate(-24.000000, -94.000000)" fill="#1787EB" fill-rule="nonzero">
            <g id="编组-12" transform="translate(0.000000, 70.000000)">
                <g id="home" transform="translate(24.000000, 24.285714)">
                    <path d="M6.00203804,0.943322981 L10.6618789,5.20283385 C10.4245924,5.23194876 10.2018634,5.3294837 10.0242624,5.48524845 L10.0213509,5.48815994 L10.0184394,5.49107143 C9.84666149,5.64392469 9.64285714,5.91323758 9.64285714,6.33685947 L9.64285714,10.3037655 L7.9367236,10.3037655 L7.9367236,8.61801242 C7.9367236,7.9847632 7.41265528,7.47088509 6.76776009,7.47088509 L5.23049301,7.47088509 C4.58559783,7.47088509 4.0615295,7.98621894 4.0615295,8.61801242 L4.0615295,10.3023098 L2.3757764,10.3023098 L2.3757764,6.328125 C2.3757764,5.74582686 1.93177407,5.26251941 1.3582104,5.18973214 L6.00203804,0.943322981 M6.00203804,0 C5.83899457,0 5.67595109,0.055318323 5.55949146,0.164499224 L0.197981366,5.06599379 C0.00582298137,5.23049301 -0.0494953416,5.47796972 0.0538625776,5.70361025 C0.157220497,5.9234278 0.377038043,6.05298913 0.630337733,6.05298913 L1.20681289,6.05298913 C1.37131211,6.05298913 1.50232919,6.17672748 1.50232919,6.32666925 L1.50232919,10.5978261 C1.50232919,10.9137228 1.78328804,11.1743012 2.12684394,11.1743012 L4.31046196,11.1743012 C4.65401786,11.1743012 4.93497671,10.9137228 4.93497671,10.5978261 L4.93497671,8.61801242 C4.93497671,8.46661491 5.06599379,8.3443323 5.23049301,8.3443323 L6.76776009,8.3443323 C6.93225932,8.3443323 7.0632764,8.46807065 7.0632764,8.61801242 L7.0632764,10.5992818 C7.0632764,10.9151786 7.34423525,11.175757 7.69506988,11.175757 L9.87868789,11.175757 C10.2295225,11.175757 10.5177601,10.9151786 10.5177601,10.5992818 L10.5177601,6.33394798 C10.5177601,6.25242624 10.5381405,6.19710792 10.6007376,6.1417896 C10.6560559,6.09375 10.7317547,6.06609084 10.8132764,6.06609084 L11.3548137,6.06609084 C11.6095691,6.06609084 11.8279309,5.92925078 11.9312888,5.71671196 C12.0477484,5.49107143 11.9924301,5.23631599 11.8148292,5.07181677 L6.44604037,0.164499224 C6.32958075,0.055318323 6.16508152,0 6.00203804,0 Z" id="形状"></path>
                </g>
            </g>
        </g>
    </g>
</svg>