<?xml version="1.0" encoding="UTF-8"?>
<svg width="30px" height="30px" viewBox="0 0 30 30" version="1.1" xmlns="http://www.w3.org/2000/svg" xmlns:xlink="http://www.w3.org/1999/xlink">
    <!-- Generator: Sketch 59.1 (86144) - https://sketch.com -->
    <title>编组</title>
    <desc>Created with Sketch.</desc>
    <g id="页面1" stroke="none" stroke-width="1" fill="none" fill-rule="evenodd" opacity="0.6">
        <g id="登陆" transform="translate(-1415.000000, -700.000000)">
            <g id="编组" transform="translate(1415.000000, 700.000000)">
                <rect id="矩形" fill="#FAFAFA" x="0" y="0" width="30" height="30" rx="15"></rect>
                <path d="M7.5,14.5588567 L14.5588567,14.5588567 L14.5588567,7.5 L7.5,7.5 L7.5,14.5588567 Z M9.2647194,9.2647194 L12.7941373,9.2647194 L12.7941373,12.7941373 L9.2647194,12.7941373 L9.2647194,9.2647194 Z M15.4412267,14.5588567 L22.5,14.5588567 L22.5,7.5 L15.4412267,7.5 L15.4412267,14.5588567 Z M17.2059253,9.2647194 L20.7352806,9.2647194 L20.7352806,12.7941373 L17.2059253,12.7941373 L17.2059253,9.2647194 Z M10.1470686,11.911788 L11.911788,11.911788 L11.911788,10.1470686 L10.1470686,10.1470686 L10.1470686,11.911788 Z M7.5,22.5 L14.5588567,22.5 L14.5588567,15.4412267 L7.5,15.4412267 L7.5,22.5 Z M9.2647194,17.2058419 L12.7941373,17.2058419 L12.7941373,20.7352806 L9.2647194,20.7352806 L9.2647194,17.2058419 Z M19.8530148,10.1470686 L18.088212,10.1470686 L18.088212,11.911788 L19.8529314,11.911788 L19.8529314,10.1470686 L19.8530148,10.1470686 Z M15.4412267,22.5 L17.2059253,22.5 L17.2059253,20.7352806 L15.4412267,20.7352806 L15.4412267,22.5 Z M17.2059253,20.7352806 L18.9706447,20.7352806 L18.9706447,17.2058419 L17.2059253,17.2058419 L17.2059253,20.7352806 Z M20.7352806,20.7352806 L18.9706447,20.7352806 L18.9706447,22.5 L22.5,22.5 L22.5,18.9705613 L20.7352806,18.9705613 L20.7352806,20.7352806 Z M20.7352806,17.2058419 L22.5,17.2058419 L22.5,15.4412267 L20.7352806,15.4412267 L20.7352806,17.2058419 Z M15.4412267,17.2058419 L17.2059253,17.2058419 L17.2059253,15.4412267 L15.4412267,15.4412267 L15.4412267,17.2058419 Z M10.1470686,19.8529314 L11.911788,19.8529314 L11.911788,18.088212 L10.1470686,18.088212 L10.1470686,19.8529314 Z" id="Fill-1" fill="#000000" fill-rule="nonzero"></path>
            </g>
        </g>
    </g>
</svg>