<?xml version="1.0" encoding="UTF-8"?>
<svg width="16px" height="16px" viewBox="0 0 16 16" version="1.1" xmlns="http://www.w3.org/2000/svg" xmlns:xlink="http://www.w3.org/1999/xlink">
    <!-- Generator: Sketch 59.1 (86144) - https://sketch.com -->
    <title>Fill 1备份</title>
    <desc>Created with Sketch.</desc>
    <g id="主页" stroke="none" stroke-width="1" fill="none" fill-rule="evenodd" opacity="0.2">
        <g id="提示文案" transform="translate(-820.000000, -323.000000)" fill="#000000">
            <g id="编组-13" transform="translate(660.000000, 320.000000)">
                <path d="M168.000049,19 C163.581704,19 160,15.4182964 160,11.0000488 C160,6.58170359 163.581704,3 168.000049,3 C172.418296,3 176,6.58170359 176,11.0000488 C176,15.4182964 172.418296,19 168.000049,19 Z M169.000031,8.04287725 L169.01712,8.04287725 C169.717199,8.04059209 170.218294,7.44397027 170.218294,6.81256325 C170.218294,6.56910592 170.14802,6.33199625 169.995442,6.15201557 C169.842844,5.97142941 169.605715,5.85599958 169.306261,5.85712413 C168.516553,5.8605699 168.106318,6.53371525 168.105166,7.04404791 C168.109151,7.63600175 168.451475,8.04287725 169.000031,8.04287725 Z M170.222337,14.1114589 L169.909758,13.4257354 L169.820559,13.5074347 C169.442297,13.8554234 168.857745,14.2560489 168.770304,14.2668692 C168.762979,14.2400918 168.759698,14.2123184 168.760616,14.1845449 C168.760616,14.1103261 168.776554,13.9925915 168.81548,13.8314585 L169.638293,10.4816888 C169.710324,10.1697353 169.749153,9.68854332 169.749153,9.45776179 C169.749153,9.24627716 169.717727,9.07086679 169.637688,8.93545646 C169.558801,8.79598364 169.409347,8.71153041 169.249132,8.7160226 C168.666847,8.72342496 167.39831,9.50575013 166.342859,10.4816888 L166.285711,10.5348725 L166.577684,11.3280375 L166.677703,11.253721 C166.959462,11.034834 167.52915,10.6171187 167.659462,10.5702827 C167.649384,10.6953219 167.630322,10.8194431 167.602314,10.941748 L166.85204,14.1737246 C166.766297,14.5280219 166.729129,15.0194483 166.729129,15.2468704 C166.729129,15.5440388 166.794286,15.7520078 166.919403,15.88859 C167.044618,16.0240003 167.216571,16.0680238 167.3829,16.0680238 L167.386337,16.0680238 C167.876592,16.0623011 169.166886,15.3806206 170.212024,14.2382559 L170.266282,14.1789004 L170.221731,14.1108534 L170.222337,14.1114589 Z" id="Fill-1备份"></path>
            </g>
        </g>
    </g>
</svg>