<?xml version="1.0" encoding="UTF-8"?>
<svg width="16px" height="16px" viewBox="0 0 16 16" version="1.1" xmlns="http://www.w3.org/2000/svg" xmlns:xlink="http://www.w3.org/1999/xlink">
    <!-- Generator: Sketch 59.1 (86144) - https://sketch.com -->
    <title>Fill 1备份</title>
    <desc>Created with Sketch.</desc>
    <g id="页面1" stroke="none" stroke-width="1" fill="none" fill-rule="evenodd" opacity="0.1">
        <g id="app详情页面" transform="translate(-801.000000, -323.000000)" fill="#000000">
            <path d="M809.000049,339 C804.581704,339 801,335.418296 801,331.000049 C801,326.581704 804.581704,323 809.000049,323 C813.418296,323 817,326.581704 817,331.000049 C817,335.418296 813.418296,339 809.000049,339 Z M810.000031,328.042877 L810.01712,328.042877 C810.717199,328.040592 811.218294,327.44397 811.218294,326.812563 C811.218294,326.569106 811.14802,326.331996 810.995442,326.152016 C810.842844,325.971429 810.605715,325.856 810.306261,325.857124 C809.516553,325.86057 809.106318,326.533715 809.105166,327.044048 C809.109151,327.636002 809.451475,328.042877 810.000031,328.042877 Z M811.222337,334.111459 L810.909758,333.425735 L810.820559,333.507435 C810.442297,333.855423 809.857745,334.256049 809.770304,334.266869 C809.762979,334.240092 809.759698,334.212318 809.760616,334.184545 C809.760616,334.110326 809.776554,333.992592 809.81548,333.831459 L810.638293,330.481689 C810.710324,330.169735 810.749153,329.688543 810.749153,329.457762 C810.749153,329.246277 810.717727,329.070867 810.637688,328.935456 C810.558801,328.795984 810.409347,328.71153 810.249132,328.716023 C809.666847,328.723425 808.39831,329.50575 807.342859,330.481689 L807.285711,330.534872 L807.577684,331.328038 L807.677703,331.253721 C807.959462,331.034834 808.52915,330.617119 808.659462,330.570283 C808.649384,330.695322 808.630322,330.819443 808.602314,330.941748 L807.85204,334.173725 C807.766297,334.528022 807.729129,335.019448 807.729129,335.24687 C807.729129,335.544039 807.794286,335.752008 807.919403,335.88859 C808.044618,336.024 808.216571,336.068024 808.3829,336.068024 L808.386337,336.068024 C808.876592,336.062301 810.166886,335.380621 811.212024,334.238256 L811.266282,334.1789 L811.221731,334.110853 L811.222337,334.111459 Z" id="Fill-1备份"></path>
        </g>
    </g>
</svg>